<?xml version="1.0" encoding="utf-8"?>
<!-- Generator: Adobe Illustrator 28.0.0, SVG Export Plug-In . SVG Version: 6.00 Build 0)  -->
<svg version="1.1" id="Layer_1" xmlns="http://www.w3.org/2000/svg" xmlns:xlink="http://www.w3.org/1999/xlink" x="0px" y="0px"
	 viewBox="0 0 600 40" style="enable-background:new 0 0 600 40;" xml:space="preserve">
<style type="text/css">
	.st0{fill:#0D2D37;}
</style>
<g>
	<path class="st0" d="M5.6,4.8H1.5C1.2,4.8,1,4.5,1,4.3l0,0V2.1c0-0.3,0.2-0.5,0.5-0.5c0,0,0,0,0,0h11.8c0.3,0,0.5,0.2,0.5,0.5
		c0,0,0,0,0,0v2.2c0,0.3-0.2,0.5-0.5,0.5l0,0H9.2v15.2c0,0.3-0.2,0.5-0.5,0.5H6.2c-0.3,0-0.5-0.2-0.5-0.5L5.6,4.8z"/>
	<path class="st0" d="M19.3,2.1c0-0.3,0.2-0.5,0.5-0.5h2.5c0.3,0,0.5,0.2,0.5,0.5c0,0,0,0,0,0v7.2h8.8V2.1c0-0.3,0.2-0.5,0.5-0.5
		c0,0,0,0,0,0h2.4c0.3,0,0.5,0.2,0.5,0.5v17.9c0,0.3-0.2,0.5-0.5,0.5h-2.4c-0.3,0-0.5-0.2-0.5-0.5l0,0v-7.5h-8.8v7.5
		c0,0.3-0.2,0.5-0.5,0.5l0,0h-2.5c-0.3,0-0.5-0.2-0.5-0.5L19.3,2.1z"/>
	<path class="st0" d="M42.8,2.1c0-0.3,0.2-0.5,0.5-0.5c0,0,0,0,0,0h11c0.3,0,0.5,0.2,0.5,0.5c0,0,0,0,0,0v2.2c0,0.3-0.2,0.5-0.5,0.5
		h-8v4.4H53c0.3,0,0.5,0.2,0.5,0.5V12c0,0.3-0.2,0.5-0.5,0.5h-6.7v4.7h8c0.3,0,0.5,0.2,0.5,0.5V20c0,0.3-0.2,0.5-0.5,0.5h-11
		c-0.3,0-0.5-0.2-0.5-0.5L42.8,2.1z"/>
	<path class="st0" d="M53.4,34.8c0.8,0,1.5,0.4,1.5,0.8v1.8c0,0.5-0.7,0.9-1.5,0.9H2.5c-0.8,0-1.5-0.4-1.5-0.9v-1.8
		c0-0.4,0.7-0.8,1.5-0.8H53.4z"/>
	<path class="st0" d="M80.6,2.5c0-0.5,0.4-1,1-1h2.1c0.5,0,1,0.5,1,1v32.3h15.1c0.5,0,1,0.4,1,1c0,0,0,0,0,0v1.5c0,0.5-0.4,1-1,1
		c0,0,0,0,0,0H81.5c-0.5,0-1-0.4-1-1c0,0,0,0,0,0L80.6,2.5z"/>
	<path class="st0" d="M111.6,2.5c0-0.5,0.5-1,1-1h2.1c0.5,0,1,0.5,1,1v34.8c0,0.5-0.5,1-1,1h-2.1c-0.5,0-1-0.5-1-1V2.5z"/>
	<path class="st0" d="M136.9,5.1h-9.1c-0.5,0-1-0.4-1-0.9c0,0,0,0,0-0.1V2.5c0-0.5,0.4-1,1-1c0,0,0,0,0,0H150c0.6,0,1,0.4,1,1v1.5
		c0,0.6-0.4,1-1,1h-9.1v32.3c0,0.5-0.4,1-1,1h-2c-0.5,0-1-0.5-1-1L136.9,5.1z"/>
	<path class="st0" d="M168.5,5.1h-9.1c-0.6,0-1-0.4-1-1c0,0,0,0,0,0V2.5c0-0.6,0.4-1,1-1l0,0h22.3c0.6,0,1,0.4,1,1c0,0,0,0,0,0v1.5
		c0,0.6-0.4,1-1,1l0,0h-9.1v32.3c0,0.5-0.4,1-1,1h-2c-0.5,0-1-0.5-1-1L168.5,5.1z"/>
	<path class="st0" d="M193.7,2.5c0-0.5,0.4-1,1-1c0,0,0,0,0,0h2.1c0.5,0,1,0.5,1,1v32.3h15.1c0.6,0,1,0.4,1,1c0,0,0,0,0,0v1.5
		c0,0.6-0.4,1-1,1l0,0h-18.2c-0.5,0-1-0.4-1-1c0,0,0,0,0,0V2.5z"/>
	<path class="st0" d="M224.7,2.5c0-0.6,0.4-1,1-1l0,0h20.7c0.6,0,1,0.4,1,1c0,0,0,0,0,0v1.5c0,0.6-0.4,1-1,1l0,0h-17.7v12.8h15.1
		c0.5,0,1,0.5,1,1v1.5c0,0.6-0.4,1-1,1l0,0h-15.1v13.4h17.6c0.6,0,1,0.4,1,1c0,0,0,0,0,0v1.5c0,0.6-0.4,1-1,1l0,0h-20.7
		c-0.6,0-1-0.4-1-1c0,0,0,0,0,0L224.7,2.5z"/>
	<path class="st0" d="M273.2,2.5c0-0.6,0.4-1,1-1l0,0h21.4c0.6,0,1,0.4,1,1c0,0,0,0,0,0v4.3c0,0.6-0.4,1-1,1l0,0H280v8.6h13
		c0.5,0,1,0.5,1,1v4.4c0,0.5-0.4,1-1,1h-13V32h15.5c0.6,0,1,0.4,1,1c0,0,0,0,0,0v4.3c0,0.6-0.4,1-1,1l0,0h-21.4c-0.6,0-1-0.4-1-1
		c0,0,0,0,0,0L273.2,2.5z"/>
	<path class="st0" d="M309.3,2.5c0-0.6,0.4-1,1-1l0,0h12.3c6.5,0,11.7,5.2,11.7,11.7S329.1,25,322.6,25H316v12.4c0,0.5-0.4,1-1,1
		h-4.9c-0.6,0-1-0.4-1-1c0,0,0,0,0,0L309.3,2.5z M322.2,18.6c3,0,5.4-2.4,5.4-5.4c0,0,0,0,0,0c-0.1-2.9-2.5-5.2-5.4-5.1c0,0,0,0,0,0
		h-6.1v10.6H322.2z"/>
	<path class="st0" d="M345.6,2.5c0-0.5,0.5-1,1-1h4.9c0.5,0,1,0.5,1,1v34.8c0,0.5-0.5,1-1,1h-4.9c-0.5,0-1-0.5-1-1V2.5z"/>
	<path class="st0" d="M383.6,1c4.7-0.1,9.3,1.6,12.7,4.9c0.4,0.4,0.4,1,0.1,1.4c0,0-0.1,0.1-0.1,0.1l-3.2,3.3
		c-0.3,0.4-0.8,0.4-1.2,0.1c-0.1,0-0.1-0.1-0.1-0.1c-2.2-2-5.1-3.1-8.1-3.1c-6.6,0.1-11.8,5.5-11.7,12.1c0,0,0,0.1,0,0.1
		c-0.2,6.6,5,12,11.6,12.2c0.1,0,0.1,0,0.2,0c2.9,0,5.8-1.1,8-3c0.4-0.3,0.9-0.3,1.3,0l3.3,3.4c0.4,0.4,0.4,1,0,1.4c0,0,0,0,0,0
		c-3.4,3.3-8,5.2-12.8,5.1c-10.4,0-18.9-8.5-18.9-18.9S373.2,1,383.6,1z"/>
	<path class="st0" d="M408,2.5c0-0.5,0.4-1,1-1h5c0.6,0,1,0.4,1,1c0,0,0,0,0,0V24c0,4.5,3.1,8,7.6,8c4.2,0.1,7.6-3.3,7.7-7.5
		c0-0.2,0-0.3,0-0.5V2.5c0-0.6,0.4-1,1-1l0,0h5c0.5,0,1,0.5,1,1v21.9c0,8.1-6.6,14.6-14.6,14.6c-8.1,0-14.6-6.6-14.6-14.6L408,2.5z"
		/>
	<path class="st0" d="M451.5,2.5c0-0.5,0.4-1,1-1c0,0,0,0,0,0h15c6.3,0,11.4,5,11.5,11.3c0,4.9-3.2,8.8-7.8,10.6l7.2,13.4
		c0.3,0.5,0.2,1.1-0.3,1.4c-0.2,0.1-0.4,0.2-0.6,0.2H472c-0.3,0-0.7-0.2-0.8-0.5l-7-13.9h-5.8v13.4c0,0.5-0.5,1-1,1h-4.9
		c-0.5,0-1-0.4-1-1c0,0,0,0,0,0L451.5,2.5z M467,18.3c2.9-0.1,5.2-2.5,5.2-5.4c-0.1-2.8-2.4-5.1-5.2-5.1h-8.5v10.5H467z"/>
	<path class="st0" d="M491.7,2.5c0-0.6,0.4-1,1-1l0,0h21.4c0.6,0,1,0.4,1,1c0,0,0,0,0,0v4.3c0,0.6-0.4,1-1,1l0,0h-15.5v8.6h13
		c0.5,0,1,0.5,1,1v4.4c0,0.6-0.4,1-1,1l0,0h-13V32h15.5c0.6,0,1,0.4,1,1c0,0,0,0,0,0v4.3c0,0.6-0.4,1-1,1l0,0h-21.4
		c-0.6,0-1-0.4-1-1c0,0,0,0,0,0V2.5z"/>
	<path class="st0" d="M523.1,36.9l16.3-35.4c0.1-0.4,0.5-0.6,0.9-0.6h0.5c0.4,0,0.8,0.2,0.9,0.6l16.2,35.4c0.2,0.5,0.1,1-0.4,1.3
		c-0.2,0.1-0.3,0.1-0.5,0.1h-4.6c-0.7,0-1.3-0.4-1.5-1.1l-2.6-5.7h-15.7l-2.6,5.7c-0.2,0.6-0.8,1.1-1.5,1.1H524c-0.5,0-1-0.3-1-0.8
		C523,37.3,523,37.1,523.1,36.9z M545.8,25.8l-5.2-11.6h-0.1l-5.2,11.6H545.8z"/>
	<path class="st0" d="M568,2c0-0.5,0.5-1,1-1h1.3l21.8,23.2l0,0V2.5c0-0.6,0.4-1,1-1l0,0h4.9c0.5,0,1,0.5,1,1v35.4c0,0.5-0.5,1-1,1
		h-1.2l-22-24.1h-0.1v22.6c0,0.5-0.4,1-1,1c0,0,0,0,0,0H569c-0.5,0-1-0.5-1-1L568,2z"/>
</g>
</svg>
